<?xml version="1.0" encoding="UTF-8"?>
<svg id="Layer_1" data-name="Layer 1" xmlns="http://www.w3.org/2000/svg" viewBox="0 0 351 332">
  <defs>
    <style>
      .cls-1 {
        fill: #7a8c97;
      }

      .cls-1, .cls-2, .cls-3, .cls-4, .cls-5, .cls-6, .cls-7, .cls-8, .cls-9, .cls-10, .cls-11, .cls-12, .cls-13, .cls-14, .cls-15, .cls-16 {
        stroke-width: 0px;
      }

      .cls-2 {
        fill: #5a6d77;
      }

      .cls-3 {
        fill: #7b8d99;
      }

      .cls-4 {
        fill: #3d87cf;
      }

      .cls-5 {
        fill: #fdedd1;
      }

      .cls-6 {
        fill: #f84857;
      }

      .cls-7 {
        fill: #b9aeb8;
      }

      .cls-8 {
        fill: #dfdde3;
      }

      .cls-9 {
        fill: #b9afba;
      }

      .cls-10 {
        fill: #0279c8;
      }

      .cls-11 {
        fill: #e2dfe4;
      }

      .cls-12 {
        fill: #3c87cf;
      }

      .cls-13 {
        fill: #b8afb9;
      }

      .cls-14 {
        fill: #fbdaa6;
      }

      .cls-15 {
        fill: #0479c8;
      }

      .cls-16 {
        fill: #0379c7;
      }
    </style>
  </defs>
  <path class="cls-9" d="m316.2,37.31c1.22,1.49,2.36,3.05,3.66,4.46,2.33,2.5,4.75,4.91,7.14,7.35v3.55c-3.27,3.85-5.25,3.88-8.95.29-2.59-2.52-5.29-4.93-7.94-7.39-1.48-1.66-2.9-3.38-4.44-4.98-2.76-2.87-3.15-5.26-1.11-7.36,2.11-2.18,4.58-1.76,7.58,1.06,1.22,1.15,2.69,2.02,4.05,3.02Z"/>
  <path class="cls-12" d="m143.19,161.53c1.16,1.35,2.32,2.7,3.48,4.04-2.81,2.73-5.62,5.45-8.42,8.18-10.19,9.95-20.37,19.9-30.54,29.87-1.09,1.07-2.1,2.23-3.14,3.35-3.09,2.55-6.19,5.09-9.28,7.64-2.22,1.94-4.44,3.89-6.67,5.83-3.52,2.97-7.05,5.94-10.57,8.9-2.37,1.81-4.74,3.63-7.11,5.44-4.41,3.72-8.83,7.43-13.24,11.15-2.76,2.65-5.54,5.26-8.26,7.96-1.15,1.14-1.17,2.4.06,3.61,6.16,6.07,12.31,12.15,18.46,18.22,3.15,3.22,6.29,6.45,9.46,9.66,1.33,1.35,2.78,1.42,4.12.06,2.61-2.65,5.16-5.35,7.73-8.03,3.82,2.37,7.51,5.01,11.51,7.03,5.06,2.56,10.49,3.97,16.21,2.34,2.05-.58,4-1.53,5.99-2.31-.46.71-.77,1.63-1.41,2.09-9.89,7.18-21,11-33.18,11.47-13.16.5-25.47-2.73-36.98-9.09-2.81-1.55-5.7-2.96-8.55-4.43-8.87-9.5-14.48-20.76-17.15-33.37-3.7-17.46-1.48-34.07,8.94-48.96,9.32-13.31,22.23-21.08,38.29-23.58,2.62-.41,5.26-.63,7.87-1.09,7.86-1.37,12.73-6.03,14.99-13.63,4.05-13.61,10.42-25.95,21.13-35.5,4.12-3.68,9.13-6.35,13.73-9.48-.72,2.84-1.61,5.65-2.13,8.53-1.59,8.81-1.79,17.5,4.65,24.72,3.03,3.39,6.64,6.26,9.99,9.36Zm-21.95-21.36c-.67.63-2.44,1.59-3.09,3.05-1.47,3.31-2.49,6.83-3.5,10.32-.71,2.46.6,4.76,2.77,5.47,2.33.77,4.7-.12,5.62-2.51,1.37-3.57,2.62-7.22,3.61-10.92.76-2.85-1.42-5.37-5.4-5.42Zm-6.84,33.63c2.68.08,5.1-2.15,5.27-4.88.17-2.65-2.1-5.2-4.76-5.35-2.8-.16-5.34,2.17-5.44,5-.09,2.61,2.3,5.15,4.93,5.23Z"/>
  <path class="cls-1" d="m104.57,206.97c1.05-1.12,2.05-2.28,3.14-3.35,10.17-9.97,20.36-19.92,30.54-29.87,2.8-2.73,5.61-5.46,8.42-8.18,4.56-4.32,9.17-8.61,13.69-12.98,27.17-26.26,54.31-52.54,81.49-78.79,5.51-5.33,11.11-10.57,16.66-15.85,3.34,3.35,6.68,6.7,10.03,10.05-.81.71-1.68,1.36-2.43,2.12-11.19,11.35-22.33,22.74-33.54,34.07-22.42,22.66-44.86,45.31-67.33,67.92-13.81,13.9-27.64,27.77-41.57,41.54-2.08,2.06-4.78,3.49-7.2,5.21-3.97-3.97-7.93-7.93-11.9-11.9Z"/>
  <path class="cls-10" d="m42.88,284.52c2.85,1.47,5.74,2.88,8.55,4.43,11.52,6.36,23.82,9.59,36.98,9.09,12.18-.46,23.29-4.28,33.18-11.47.64-.46.95-1.38,1.41-2.09,7.68-4.6,13.54-10.78,16.17-19.5,1.36-4.51,2.65-9.09,3.36-13.73,2.12-13.82,10.43-21.7,23.43-25.38,2.35-.67,4.72-1.36,6.96-2.33,3.22-1.4,4.55-4.02,4.21-7.61,2.88-2.65,5.96-5.12,8.56-8.02,1.26-1.41,1.62-3.62,2.38-5.47,1.17.12,2.35.17,3.51.38,9.53,1.77,13.04,9.71,7.35,17.54-6.55,9.02-15.51,15.03-26.08,18.42-10.55,3.39-14.61,8.11-15.7,19.1-3.34,33.62-31.21,56.28-64.94,52.73-19.92-2.1-36.23-11.09-49.33-26.1Z"/>
  <path class="cls-2" d="m116.47,218.87c2.41-1.72,5.11-3.16,7.2-5.21,13.93-13.77,27.77-27.64,41.57-41.54,22.47-22.62,44.91-45.26,67.33-67.92,11.21-11.33,22.35-22.72,33.54-34.07.75-.76,1.62-1.42,2.43-2.12.19.02.39.03.58.04,2.52,2.56,5.04,5.12,7.55,7.68-10.67,11.18-21.31,22.38-32,33.53-27.33,28.5-54.69,56.98-82.03,85.48-.47.49-.85,1.06-1.27,1.59-2.28,2.23-4.63,4.41-6.82,6.72-1.02,1.07-1.75,2.42-2.61,3.65-.84.61-1.79,1.12-2.51,1.85-5.88,6.05-11.69,12.16-17.57,18.2-2.7,2.77-4.84,2.76-7.56.07-2.65-2.61-5.23-5.3-7.83-7.96Z"/>
  <path class="cls-12" d="m269.12,68.04c-.2,0-.39-.02-.59-.04-3.34-3.35-6.68-6.7-10.03-10.05,2.57-5.51,4.96-11.11,7.82-16.47,1.08-2.02,2.95-4.14,4.98-5.06,12.23-5.54,24.62-10.74,36.96-16.04.44-.19.94-.26,1.41-.38-.21.61-.29,1.32-.66,1.83-4.7,6.53-9.45,13.01-14.14,19.55-.34.47-.26,1.24-.37,1.88-.73,1.02-1.46,2.04-2.19,3.06-3.02,1.58-4.49,4.31-5.49,7.39-4.81.32-6.17,2.2-4.84,6.67-.5.26-1.2.39-1.45.8-1.74,2.87-4.27,4.4-7.51,5.11-1.37.3-2.62,1.15-3.92,1.75Z"/>
  <path class="cls-10" d="m143.19,161.53c-3.35-3.1-6.96-5.97-9.99-9.36-6.44-7.21-6.25-15.91-4.65-24.72.52-2.88,1.41-5.69,2.13-8.53,2.01-.76,3.97-1.72,6.04-2.23,5.33-1.33,10.45,3.98,8.63,9.23-1.25,3.62-2.2,7.34-3.14,11.06-2.09,8.27-2.51,16.5.98,24.56Z"/>
  <path class="cls-4" d="m151.94,206.7c.86-1.22,1.59-2.57,2.61-3.65,2.2-2.32,4.54-4.49,6.82-6.72,8.9,2.04,17.81,4.07,26.71,6.11-.77,1.85-1.12,4.06-2.38,5.47-2.6,2.9-5.68,5.37-8.56,8.02-4.11-3.62-9.41-3.77-14.37-4.9-3.61-1.44-7.22-2.88-10.83-4.32Z"/>
  <path class="cls-15" d="m294.52,43.25c.12-.63.04-1.4.37-1.88,4.69-6.53,9.44-13.02,14.14-19.55.36-.5.44-1.21.66-1.83,0,0,.03,0,.03,0,.25-.12.5-.24.74-.36,4.53-1.39,8.72.42,12.88,1.63,2.02.59,2.15,3.05.6,5.26-2.53,3.62-5.15,7.18-7.74,10.77-1.36-1-2.83-1.87-4.05-3.02-3-2.83-5.47-3.24-7.58-1.06-2.05,2.11-1.65,4.49,1.11,7.36,1.54,1.6,2.97,3.32,4.44,4.98-1.11,1.57-2.21,3.13-3.32,4.7-1.99-1.85-4.01-3.67-5.95-5.57-1.84-1.8-3.84-2.63-6.33-1.46Z"/>
  <path class="cls-13" d="m282,60.38c-1.34-4.48.03-6.36,4.84-6.67,1.4,1.02,2.87,1.97,4.2,3.07,2.29,1.91,4.49,3.91,6.73,5.88,1.78,2.04,3.51,4.11,5.34,6.1,2.34,2.53,2.67,5.28.75,7.25-2.02,2.08-4.52,1.79-7.17-.7-1.61-1.51-3.34-2.9-5.02-4.35-.62-.85-1.15-1.79-1.87-2.55-2.56-2.71-5.19-5.36-7.8-8.03Z"/>
  <path class="cls-13" d="m294.52,43.25c2.49-1.17,4.49-.34,6.33,1.46,1.94,1.9,3.96,3.71,5.95,5.57,2.58,2.7,5.2,5.36,7.73,8.1,1.59,1.72,2.5,3.97.81,5.82-1.07,1.17-3.13,1.67-4.83,1.95-.78.13-1.87-.89-2.64-1.6-2.32-2.12-4.55-4.34-6.82-6.52-2.28-2.36-4.71-4.6-6.77-7.13-1.01-1.24-1.32-3.04-1.95-4.58.73-1.02,1.46-2.04,2.19-3.06Z"/>
  <path class="cls-10" d="m282,60.38c2.6,2.67,5.23,5.32,7.8,8.03.72.76,1.25,1.69,1.87,2.55-1.72,2.94-4.14,4.5-7.68,4.39-2.43-.08-4.88.23-7.32.37-2.52-2.56-5.04-5.12-7.55-7.68,1.3-.6,2.55-1.45,3.92-1.75,3.24-.71,5.78-2.24,7.51-5.11.25-.41.96-.54,1.45-.8Z"/>
  <path class="cls-16" d="m292.33,46.31c.63,1.55.95,3.35,1.95,4.58,2.06,2.54,4.49,4.77,6.77,7.13-1.09,1.54-2.18,3.08-3.27,4.63-2.24-1.96-4.44-3.97-6.73-5.88-1.33-1.11-2.8-2.05-4.2-3.07,1-3.08,2.46-5.82,5.49-7.39Z"/>
  <path class="cls-12" d="m310.45,19.64c-.25.12-.49.24-.74.36.25-.12.5-.24.74-.36Z"/>
  <path class="cls-5" d="m151.94,206.7c3.61,1.44,7.22,2.88,10.83,4.32-2.3.84-4.55,1.81-6.89,2.5-11.86,3.47-21.47,9.33-24.32,22.51-.72,3.35-1.33,6.72-2.09,10.05-1.87,8.15-4.71,15.85-11.24,21.55-7.88,6.88-16.58,10.53-27.02,6.14-2.88-1.21-5.64-2.69-8.46-4.04,0,0,.02,0,.02,0-.2-.2-.41-.4-.61-.6,0,0,.02.02.02.02-.37-.22-.74-.43-1.1-.65-1.4-1.2-2.79-2.39-4.19-3.59-2.52-2.6-4.99-5.24-7.56-7.78-3.83-3.77-7.73-7.46-11.6-11.18,4.41-3.72,8.83-7.43,13.24-11.15,8.32,8.39,16.65,16.77,24.97,25.16.21.21.44.4.69.56,2.19,1.42,4.3,1.32,6.16-.52,1.75-1.73,1.88-4.22.02-6.09-8.19-8.24-16.48-16.37-24.73-24.54,3.52-2.97,7.05-5.94,10.57-8.9,7.82,7.91,15.59,15.87,23.47,23.71,1.98,1.97,4.88,1.76,6.62-.09,1.76-1.86,1.83-4.33-.18-6.35-7.7-7.75-15.5-15.41-23.25-23.11,3.1-2.55,6.19-5.09,9.28-7.64,3.96,3.96,7.93,7.93,11.89,11.9,2.61,2.66,5.19,5.34,7.83,7.96,2.72,2.69,4.86,2.69,7.56-.07,5.88-6.04,11.69-12.16,17.57-18.2.71-.74,1.67-1.24,2.51-1.85Z"/>
  <path class="cls-14" d="m82.74,269.72c2.82,1.36,5.58,2.83,8.46,4.04,10.44,4.39,19.14.74,27.02-6.14,6.53-5.7,9.36-13.4,11.24-21.55.77-3.33,1.37-6.71,2.09-10.05,2.84-13.18,12.46-19.04,24.32-22.51,2.34-.68,4.6-1.66,6.89-2.5,4.96,1.13,10.26,1.29,14.37,4.9.34,3.59-.99,6.2-4.21,7.61-2.23.97-4.6,1.67-6.96,2.33-13.01,3.68-21.31,11.56-23.43,25.38-.71,4.64-2,9.23-3.36,13.73-2.63,8.73-8.49,14.9-16.17,19.5-2,.78-3.94,1.72-5.99,2.31-5.72,1.63-11.15.22-16.21-2.34-4-2.02-7.68-4.66-11.51-7.03-.68-.81-1.36-1.63-2.04-2.44-1.5-1.75-3-3.5-4.5-5.25Z"/>
  <path class="cls-11" d="m57.71,245.94c3.87,3.72,7.77,7.41,11.6,11.18,2.58,2.54,5.05,5.18,7.56,7.78-2.42,2.53-4.91,5-7.23,7.62-.77.87-1.12,2.13-1.67,3.2-6.15-6.08-12.3-12.16-18.46-18.22-1.23-1.21-1.22-2.47-.06-3.61,2.71-2.69,5.5-5.31,8.26-7.96Z"/>
  <path class="cls-3" d="m78.05,229.35c8.25,8.17,16.54,16.31,24.73,24.54,1.86,1.87,1.73,4.37-.02,6.09-1.87,1.84-3.98,1.95-6.16.52-.25-.16-.48-.35-.69-.56-8.33-8.38-16.65-16.77-24.97-25.16,2.37-1.81,4.74-3.63,7.11-5.44Z"/>
  <path class="cls-3" d="m95.29,214.61c7.76,7.7,15.55,15.36,23.25,23.11,2,2.02,1.93,4.48.18,6.35-1.74,1.84-4.64,2.06-6.62.09-7.89-7.84-15.66-15.8-23.47-23.71,2.22-1.95,4.44-3.89,6.66-5.83Z"/>
  <path class="cls-7" d="m67.98,275.73c.54-1.08.89-2.33,1.67-3.2,2.32-2.62,4.81-5.09,7.23-7.62,1.4,1.2,2.79,2.39,4.19,3.59.37.22.74.43,1.1.65,0,0-.02-.02-.02-.02.2.2.41.4.61.6,0,0-.02,0-.02,0,1.5,1.75,3.01,3.5,4.5,5.25.69.81,1.36,1.62,2.04,2.44-2.57,2.68-5.12,5.39-7.73,8.03-1.34,1.36-2.79,1.3-4.12-.06-3.16-3.21-6.31-6.44-9.46-9.66Z"/>
  <path class="cls-6" d="m121.24,140.17c3.98.04,6.17,2.57,5.4,5.42-.99,3.7-2.23,7.34-3.61,10.92-.92,2.38-3.29,3.28-5.62,2.51-2.17-.72-3.48-3.02-2.77-5.47,1.01-3.49,2.03-7.02,3.5-10.32.65-1.46,2.42-2.42,3.09-3.05Z"/>
  <path class="cls-8" d="m114.4,173.8c-2.63-.08-5.02-2.62-4.93-5.23.1-2.83,2.64-5.17,5.44-5,2.67.16,4.93,2.7,4.76,5.35-.17,2.73-2.59,4.97-5.27,4.88Z"/>
</svg>