<?xml version="1.0" encoding="UTF-8"?>
<svg id="Layer_1" data-name="Layer 1" xmlns="http://www.w3.org/2000/svg" viewBox="0 0 577.02 525.96">
  <defs>
    <style>
      .cls-1 {
        fill: #020202;
      }

      .cls-1, .cls-2, .cls-3, .cls-4 {
        stroke-width: 0px;
      }

      .cls-2 {
        fill: #050403;
      }

      .cls-3 {
        fill: #01806f;
      }

      .cls-4 {
        fill: #008070;
      }
    </style>
  </defs>
  <path class="cls-2" d="m289.93,212.74c63.84,0,127.68,0,191.51,0,28.19,0,48.95,17.23,54.07,44.83,5.54,29.93-18.43,59.66-48.92,60.49-12.3.33-24.62.36-36.93.36-116.34.03-232.68.04-349.02-.01-20.87,0-38.12-7.42-49.01-26.08-20.67-35.41,4.77-79.55,45.78-79.58,64.17-.05,128.34-.01,192.51-.01Zm.52,70.29c18,0,36.01,0,54.01,0,46.51,0,93.02.03,139.52-.04,8.41-.01,15.26-5.98,16.88-14.23,1.54-7.86-2.24-15.61-9.95-18.69-3.74-1.49-8.05-2.16-12.1-2.16-127.19-.07-254.38-.03-381.57.05-7.23,0-12.96,3.1-15.93,9.94-2.85,6.55-2.45,13.02,2.1,18.81,4.06,5.17,9.66,6.39,16,6.38,63.68-.1,127.36-.06,191.03-.06Z"/>
  <path class="cls-2" d="m289.95,376.77c63.84,0,127.67-.03,191.51.02,27.69.02,48.84,16.97,53.65,42.79,6.19,33.17-18.58,62.87-52.54,62.88-107.34.03-214.68.01-322.02.01-20.5,0-41,.03-61.5,0-30-.05-51.77-20.04-54.45-49.95-2.58-28.76,21.35-55.35,50.4-55.52,41.48-.25,82.97-.17,124.45-.21,23.5-.02,47,0,70.5,0Zm.38,35.18c-52.33,0-104.65,0-156.98,0-12.33,0-24.66-.08-37,.03-7.51.07-14.12,5.34-16.19,12.55-2.25,7.83.2,15.94,7.47,19.29,5.36,2.48,11.74,3.83,17.67,3.85,85.49.24,170.98.24,256.47.13,40.3-.05,80.6-.48,120.9-.77,1.81-.01,3.69-.1,5.42-.57,8.8-2.38,14.17-10.76,12.86-19.86-1.15-8.01-9.07-14.65-17.64-14.66-64.33-.02-128.65-.01-192.98-.01Z"/>
  <path class="cls-1" d="m290.13,48.71c13.83,0,27.67-.01,41.5,0,51,.05,102,.06,153,.19,29.07.07,51.46,23.86,51.39,54.36-.06,27.41-23.92,51.14-51.53,51.14-128.84.02-257.68.03-386.53,0-27.54,0-49.91-19.47-53.05-45.95-3.2-26.97,12.96-51.16,38.91-57.87,4.3-1.11,8.87-1.62,13.32-1.63,62.67-.1,125.33-.07,188-.07h5c0-.06,0-.11,0-.17Zm.55,35.18c-64.34,0-128.69,0-193.03,0-8.98,0-16.28,5.77-17.72,13.84-1.73,9.69,2.52,17.32,11.74,20.41,2.94.99,6.16,1.56,9.25,1.56,126.35.08,252.71.09,379.06-.04,4.02,0,8.37-.93,11.98-2.65,7.03-3.34,10.58-12.09,8.75-19.46-1.98-7.98-9.18-13.66-17.5-13.66-64.18-.02-128.36,0-192.53,0Z"/>
  <path class="cls-4" d="m290.46,283.02c-63.68,0-127.36-.04-191.03.06-6.35,0-11.94-1.21-16-6.38-4.55-5.79-4.94-12.26-2.1-18.81,2.97-6.83,8.7-9.93,15.93-9.94,127.19-.08,254.38-.12,381.57-.05,4.05,0,8.36.67,12.1,2.16,7.71,3.08,11.49,10.83,9.95,18.69-1.62,8.25-8.47,14.22-16.88,14.23-46.51.06-93.02.04-139.52.04-18,0-36.01,0-54.01,0Z"/>
  <path class="cls-3" d="m290.33,411.94c64.33,0,128.65,0,192.98.01,8.58,0,16.49,6.65,17.64,14.66,1.31,9.1-4.06,17.48-12.86,19.86-1.73.47-3.61.55-5.42.57-40.3.29-80.6.71-120.9.77-85.49.12-170.98.11-256.47-.13-5.93-.02-12.31-1.37-17.67-3.85-7.27-3.36-9.72-11.46-7.47-19.29,2.07-7.21,8.68-12.48,16.19-12.55,12.33-.11,24.66-.03,37-.03,52.33,0,104.65,0,156.98,0Z"/>
  <path class="cls-3" d="m290.68,83.89c64.18,0,128.36,0,192.53,0,8.32,0,15.52,5.68,17.5,13.66,1.83,7.36-1.72,16.11-8.75,19.46-3.61,1.72-7.96,2.65-11.98,2.65-126.35.13-252.71.12-379.06.04-3.09,0-6.32-.58-9.25-1.56-9.22-3.1-13.47-10.73-11.74-20.41,1.44-8.07,8.74-13.84,17.72-13.84,64.34-.02,128.69,0,193.03,0Z"/>
</svg>