<?xml version="1.0" encoding="UTF-8"?>
<svg id="Layer_1" data-name="Layer 1" xmlns="http://www.w3.org/2000/svg" viewBox="0 0 511.84 511.84">
  <defs>
    <style>
      .cls-1, .cls-2, .cls-3 {
        stroke-width: 0px;
      }

      .cls-2 {
        fill: #030201;
      }

      .cls-3 {
        fill: #008170;
      }
    </style>
  </defs>
  <path class="cls-2" d="m256.33,375.53c63.4,0,126.8-.03,190.2.01,24.92.02,44.29,12.85,52.12,34.33,12.45,34.15-11.24,69.33-47.97,71.22-1.46.08-2.92.07-4.38.07-126.62,0-253.24.01-379.86,0-26.79,0-47.34-15.09-53.94-39.46-8.65-31.95,14.6-64.55,47.6-65.84,20.07-.79,40.19-.31,60.28-.32,45.31-.03,90.63,0,135.94,0Zm.28,35.25c-50.43,0-100.87,0-151.3,0-13.89,0-27.78-.08-41.66.04-8.19.07-14.25,4.45-16.78,11.68-4.32,12.33,4.74,23.43,19.27,23.43,126.82.02,253.63.01,380.45-.02,2.17,0,4.4-.16,6.51-.63,6.87-1.51,11.22-5.86,13.11-12.57,1.86-6.61-.12-12.26-4.79-17.06-4.17-4.29-9.46-4.92-15.13-4.92-63.23.06-126.45.04-189.68.04Z"/>
  <path class="cls-2" d="m255.79,317.08c-63.22,0-126.44.03-189.65-.01-24.61-.02-43.99-12.72-51.97-33.85-12.81-33.92,10.7-69.53,47.33-71.67,1.64-.1,3.29-.1,4.93-.1,126.62,0,253.24-.01,379.85,0,26.81,0,47.32,15.08,53.9,39.48,8.63,31.99-14.55,64.41-47.63,65.82-17.69.76-35.44.31-53.16.32-47.87.03-95.74,0-143.61,0Zm0-35.25c62.86,0,125.72,0,188.58,0,2.01,0,4.02.04,6.03-.08,7.3-.44,13.17-5,15.49-11.92,4.14-12.37-4.95-23.15-19.6-23.16-126.64-.01-253.27-.01-379.91.02-2.36,0-4.77.15-7.06.68-6.86,1.57-11.17,6.02-12.92,12.75-1.71,6.59.23,12.25,5.06,16.98,4.27,4.18,9.55,4.77,15.2,4.76,63.04-.06,126.09-.04,189.13-.04Z"/>
  <path class="cls-1" d="m256.51,47.68c63.95,0,127.89-.05,191.84.02,31.54.04,54.85,24.55,53.53,56.03-1.08,25.77-23.46,48.23-49.18,49.35-1.82.08-3.65.08-5.48.08-127.35,0-254.69.02-382.04,0-27.51,0-48.82-17.46-53.6-43.76-5.79-31.86,18.75-61.53,51.44-61.65,53.53-.2,107.06-.06,160.6-.06,10.96,0,21.92,0,32.89,0Zm-.45,70.32c56.65,0,113.3,0,169.95,0,8.04,0,16.09.19,24.12-.08,8.8-.3,15.95-7.37,16.68-15.98.75-8.82-5.44-17.13-14.22-18.78-2.31-.43-4.73-.31-7.1-.31-126.09-.01-252.18-.01-378.27,0-1.64,0-3.3-.11-4.93.05-7.39.73-12.67,4.49-15.31,11.48-4.49,11.91,4.29,23.6,17.76,23.61,63.78.04,127.55.02,191.33.02Z"/>
  <path class="cls-3" d="m256.6,410.78c63.23,0,126.45.02,189.68-.04,5.67,0,10.96.63,15.13,4.92,4.67,4.8,6.66,10.46,4.79,17.06-1.89,6.71-6.24,11.06-13.11,12.57-2.12.47-4.34.63-6.51.63-126.82.03-253.63.03-380.45.02-14.53,0-23.59-11.1-19.27-23.43,2.53-7.23,8.59-11.6,16.78-11.68,13.89-.12,27.78-.04,41.66-.04,50.43,0,100.87,0,151.3,0Z"/>
  <path class="cls-3" d="m255.8,281.83c-63.04,0-126.09-.02-189.13.04-5.65,0-10.93-.58-15.2-4.76-4.83-4.73-6.77-10.39-5.06-16.98,1.75-6.74,6.06-11.18,12.92-12.75,2.29-.52,4.7-.68,7.06-.68,126.64-.03,253.27-.03,379.91-.02,14.66,0,23.74,10.79,19.6,23.16-2.31,6.92-8.19,11.47-15.49,11.92-2,.12-4.02.08-6.03.08-62.86,0-125.72,0-188.58,0Z"/>
  <path class="cls-3" d="m256.06,118c-63.78,0-127.55.02-191.33-.02-13.48,0-22.25-11.71-17.76-23.61,2.64-6.99,7.92-10.75,15.31-11.48,1.63-.16,3.29-.05,4.93-.05,126.09,0,252.18,0,378.27,0,2.37,0,4.8-.12,7.1.31,8.78,1.65,14.97,9.95,14.22,18.78-.73,8.62-7.88,15.69-16.68,15.98-8.03.27-16.08.08-24.12.08-56.65,0-113.3,0-169.95,0Z"/>
</svg>