<?xml version="1.0" encoding="UTF-8"?>
<svg id="Layer_1" data-name="Layer 1" xmlns="http://www.w3.org/2000/svg" viewBox="0 0 511.84 511.84">
  <defs>
    <style>
      .cls-1 {
        fill: #232021;
      }

      .cls-1, .cls-2 {
        stroke-width: 0px;
      }

      .cls-2 {
        fill: #008170;
      }
    </style>
  </defs>
  <path class="cls-1" d="m162.67,256.38c-43.47-43.28-86.16-85.33-128.28-127.94-18.18-18.39-23.29-41.08-15.63-65.71C33.5,15.35,92.74.36,128.13,35.15c40.92,40.23,81.27,81.04,121.83,121.64,1.77,1.77,3.13,3.96,4.96,6.33,2.77-2.65,4.59-4.32,6.33-6.06,40.76-40.72,81.3-81.67,122.35-122.1,29.16-28.72,76.78-23.89,100.29,9.51,18.62,26.44,15.58,61.7-7.85,85.3-40.11,40.39-80.46,80.55-120.74,120.78-1.77,1.77-3.76,3.33-5.99,5.28,2.32,2.42,3.99,4.25,5.74,5.99,39.6,39.6,79.32,79.08,118.77,118.83,27.37,27.58,27.12,69.5-.16,95.74-26.27,25.27-66.94,24.44-93.79-2.25-39.55-39.32-78.92-78.83-118.32-118.31-1.77-1.77-3.12-3.96-4.94-6.31-2.78,2.66-4.61,4.33-6.36,6.08-40.77,40.71-81.34,81.62-122.36,122.08-23.86,23.54-60.86,25.08-87.04,4.48-30.73-24.18-34.25-69.83-6.79-97.72,40.42-41.06,81.36-81.6,122.11-122.34,1.77-1.77,3.76-3.33,6.48-5.72ZM82.84,60.92c-4.65,2.22-9.94,3.65-13.82,6.82-10.31,8.42-10,23.19.24,33.43,45.46,45.47,90.99,90.88,136.47,136.33,12.98,12.97,13.01,24.64.12,37.53-39.94,39.91-79.91,79.8-119.86,119.7-6.2,6.19-12.52,12.26-18.54,18.62-6.07,6.41-7.72,14.17-4.79,22.41,2.91,8.19,8.93,13.21,17.72,14.58,8.57,1.33,15.06-2.3,20.91-8.17,45.23-45.38,90.64-90.58,135.74-136.09,10.67-10.76,25.49-14.08,38.84-.03,27.13,28.57,55.49,55.97,83.34,83.86,17.43,17.45,34.78,34.97,52.3,52.32,10.53,10.42,25.19,9.75,33.86-1.27,7.42-9.42,6.15-21.4-3.47-31.02-45.47-45.46-90.98-90.89-136.48-136.33-12.59-12.58-12.56-24.34.1-36.99,44.68-44.63,89.37-89.24,134.05-133.87,1.95-1.95,3.98-3.86,5.7-6.01,9.62-12.04,4.11-30.43-10.65-34.78-9.48-2.79-17.38.22-24.39,7.27-45.17,45.44-90.49,90.72-135.78,136.05-13.01,13.02-24.34,12.97-37.48-.07-45.14-44.81-90.31-89.6-135.39-134.47-5.11-5.09-10.62-8.82-18.74-9.81Z"/>
  <path class="cls-2" d="m82.84,60.92c8.12.99,13.63,4.72,18.74,9.81,45.08,44.87,90.25,89.66,135.39,134.47,13.14,13.05,24.48,13.09,37.48.07,45.29-45.32,90.61-90.6,135.78-136.05,7.01-7.05,14.91-10.07,24.39-7.27,14.76,4.35,20.27,22.74,10.65,34.78-1.72,2.15-3.75,4.06-5.7,6.01-44.68,44.63-89.37,89.24-134.05,133.87-12.67,12.65-12.7,24.41-.1,36.99,45.49,45.44,91,90.87,136.48,136.33,9.62,9.62,10.89,21.6,3.47,31.02-8.67,11.01-23.33,11.69-33.86,1.27-17.52-17.35-34.87-34.88-52.3-52.32-27.85-27.88-56.21-55.29-83.34-83.86-13.34-14.05-28.17-10.74-38.84.03-45.1,45.51-90.51,90.71-135.74,136.09-5.85,5.87-12.34,9.5-20.91,8.17-8.79-1.37-14.81-6.38-17.72-14.58-2.93-8.24-1.28-16,4.79-22.41,6.02-6.36,12.34-12.43,18.54-18.62,39.95-39.9,79.92-79.79,119.86-119.7,12.9-12.88,12.86-24.56-.12-37.53-45.49-45.45-91.01-90.86-136.47-136.33-10.24-10.24-10.55-25.01-.24-33.43,3.88-3.17,9.17-4.59,13.82-6.82Z"/>
</svg>