<?xml version="1.0" encoding="UTF-8"?>
<svg id="Layer_1" data-name="Layer 1" xmlns="http://www.w3.org/2000/svg" viewBox="0 0 577.02 525.96">
  <defs>
    <style>
      .cls-1 {
        fill: #00806f;
      }

      .cls-1, .cls-2 {
        stroke-width: 0px;
      }

      .cls-2 {
        fill: #232122;
      }
    </style>
  </defs>
  <path class="cls-2" d="m194.21,264.54c-22.92-23.23-46.83-47.53-70.83-71.76-18.96-19.14-38.42-37.81-56.95-57.36-18.72-19.75-21.72-43.23-12.03-68.04,9.42-24.12,27.66-38.11,53.36-41.55,21.5-2.87,39.92,4.03,55.24,19.29,32.64,32.51,65.26,65.04,97.88,97.58,9.39,9.37,18.73,18.8,28.38,28.49,1.55-1.46,3.49-3.21,5.34-5.05,40.5-40.42,80.87-80.99,121.55-121.23,19.67-19.46,43.39-24.93,69.29-15.6,25.48,9.18,40.22,28.36,43.5,55.23,2.52,20.62-4.21,38.9-18.83,53.65-40.4,40.75-81.09,81.23-121.68,121.8-1.52,1.52-3.19,2.89-5.23,4.71,2.2,2.31,4.26,4.59,6.43,6.76,39.04,39.06,78.11,78.09,117.12,117.18,24.87,24.92,27.88,61.66,7.37,88.46-24.8,32.42-70.45,35.53-100.29,6.14-39.7-39.1-78.89-78.74-118.26-118.17-1.87-1.87-3.43-4.04-5.4-6.39-2.52,2.39-5.06,4.67-7.47,7.08-37.06,37.05-74.09,74.14-111.19,111.15-8.34,8.32-16.54,16.76-27.45,22.03-40.27,19.45-89.82-8.37-94.14-52.91-2.07-21.39,4.5-39.5,19.67-54.66,37.99-37.99,75.95-76.01,113.82-114.12,3.98-4,7.33-8.62,10.78-12.72ZM483.66,91.98c-.32-2.12-.4-4.31-1-6.34-4.96-16.82-25.27-21.16-38.4-8.1-20.42,20.28-40.69,40.71-61.03,61.07-25.76,25.76-51.45,51.59-77.34,77.23-10.16,10.07-19.79,10.35-30.98,1.59-1.57-1.23-3.17-2.44-4.57-3.84-43.91-43.59-87.8-87.2-131.7-130.8-1.42-1.41-2.79-2.87-4.29-4.17-11.14-9.64-16.06-10.79-27.93-4.13-9.05,5.08-13.64,14.74-10.11,24.36,1.6,4.37,4.27,8.75,7.54,12.05,45.14,45.43,90.47,90.68,135.76,135.97,4.79,4.79,8.63,10.04,9.2,17.14.63,7.92-3.44,13.55-8.65,18.76-40.83,40.81-81.64,81.64-122.45,122.46-5.41,5.41-10.98,10.67-16.19,16.27-8.63,9.27-8.67,21.85-.39,30.52,8.91,9.33,21.37,10.16,31.15,1.46,6.81-6.05,12.98-12.82,19.44-19.27,20.46-20.46,40.93-40.92,61.38-61.39,19.16-19.18,38.26-38.43,57.48-57.57,11.67-11.62,24.74-12.64,36.32-2.73,3.76,3.22,6.78,7.29,10.29,10.81,42.19,42.27,84.4,84.51,126.62,126.76.71.71,1.39,1.45,2.17,2.07,7.56,6.05,15.87,8.43,25.01,4.1,8.83-4.18,13.24-12.61,12.39-22.95-.52-6.35-4.23-10.99-8.55-15.3-44.26-44.2-88.5-88.41-132.74-132.63-16.29-16.28-16.32-26.36-.13-42.54,44.59-44.57,89.17-89.15,133.82-133.67,4.82-4.8,8.02-10.12,7.92-17.17Z"/>
  <path class="cls-1" d="m483.66,91.98c.1,7.05-3.11,12.36-7.92,17.17-44.65,44.52-89.23,89.1-133.82,133.67-16.19,16.18-16.16,26.26.13,42.54,44.24,44.22,88.48,88.43,132.74,132.63,4.31,4.31,8.02,8.95,8.55,15.3.85,10.34-3.56,18.77-12.39,22.95-9.14,4.33-17.44,1.95-25.01-4.1-.78-.62-1.46-1.36-2.17-2.07-42.21-42.25-84.43-84.49-126.62-126.76-3.52-3.52-6.53-7.59-10.29-10.81-11.58-9.91-24.65-8.89-36.32,2.73-19.22,19.13-38.31,38.38-57.48,57.57-20.45,20.47-40.92,40.93-61.38,61.39-6.45,6.45-12.62,13.22-19.44,19.27-9.79,8.7-22.24,7.87-31.15-1.46-8.28-8.67-8.23-21.24.39-30.52,5.21-5.6,10.78-10.86,16.19-16.27,40.81-40.82,81.62-81.65,122.45-122.46,5.21-5.2,9.28-10.84,8.65-18.76-.57-7.1-4.41-12.35-9.2-17.14-45.28-45.29-90.61-90.54-135.76-135.97-3.27-3.29-5.94-7.68-7.54-12.05-3.53-9.62,1.06-19.28,10.11-24.36,11.87-6.66,16.78-5.5,27.93,4.13,1.51,1.3,2.88,2.76,4.29,4.17,43.89,43.6,87.78,87.22,131.7,130.8,1.41,1.4,3.01,2.61,4.57,3.84,11.19,8.75,20.82,8.47,30.98-1.59,25.88-25.64,51.58-51.46,77.34-77.23,20.35-20.35,40.62-40.78,61.03-61.07,13.14-13.05,33.45-8.71,38.4,8.1.6,2.04.68,4.23,1,6.34Z"/>
</svg>