<?xml version="1.0" encoding="UTF-8"?>
<svg id="Layer_1" data-name="Layer 1" xmlns="http://www.w3.org/2000/svg" viewBox="0 0 351 332">
  <defs>
    <style>
      .cls-1 {
        fill: #7392d7;
      }

      .cls-1, .cls-2, .cls-3, .cls-4, .cls-5, .cls-6, .cls-7, .cls-8, .cls-9, .cls-10, .cls-11, .cls-12, .cls-13, .cls-14, .cls-15, .cls-16, .cls-17, .cls-18, .cls-19, .cls-20, .cls-21, .cls-22 {
        stroke-width: 0px;
      }

      .cls-2 {
        fill: #c8eafe;
      }

      .cls-3 {
        fill: #3e6db3;
      }

      .cls-4 {
        fill: #212244;
      }

      .cls-5 {
        fill: #202043;
      }

      .cls-6 {
        fill: #c6c6c7;
      }

      .cls-7 {
        fill: #3d6fb7;
      }

      .cls-8 {
        fill: #93cee9;
      }

      .cls-9 {
        fill: #ececec;
      }

      .cls-10 {
        fill: #c7e9fd;
      }

      .cls-11 {
        fill: #3e6fb7;
      }

      .cls-12 {
        fill: #eed670;
      }

      .cls-13 {
        fill: #7292d6;
      }

      .cls-14 {
        fill: #c6e9fd;
      }

      .cls-15 {
        fill: #e7d274;
      }

      .cls-16 {
        fill: #97cce9;
      }

      .cls-17 {
        fill: #4f4f6c;
      }

      .cls-18 {
        fill: #4d4d6b;
      }

      .cls-19 {
        fill: #50506c;
      }

      .cls-20 {
        fill: #4c4c6a;
      }

      .cls-21 {
        fill: #95cbe9;
      }

      .cls-22 {
        fill: #4d4d6a;
      }
    </style>
  </defs>
  <path class="cls-17" d="m87.52,60.98c-12.17,21.05-24.48,42.03-36.39,63.23-1.95,3.47-3.03,7.91-3.05,11.9-.22,39.3-.15,78.61-.08,117.92,0,1.68.51,3.52,1.32,5,6.87,12.54,13.87,25.01,20.83,37.5.36.64.75,1.26,1.07,1.91,1.38,2.84.7,5.44-1.73,6.77-2.42,1.31-5,.52-6.64-2.21-1.66-2.77-3.18-5.63-4.76-8.46-4.88-8.74-9.76-17.48-14.92-26.72-.79,1.3-1.38,2.21-1.91,3.15-5.65,10.11-11.29,20.23-16.94,30.35-3.05,5.46-5.59,5.92-10.11,1.84,0-1.46,0-2.93,0-4.39.61-.74,1.34-1.42,1.8-2.24,6.85-12.2,13.73-24.37,20.41-36.66,1.09-2,1.77-4.5,1.77-6.77.11-38.37.12-76.73.04-115.1-.02-7.42,1.76-14.15,5.5-20.57,11.89-20.38,23.59-40.86,35.36-61.3,2.81,1.62,5.62,3.23,8.43,4.85Z"/>
  <path class="cls-4" d="m227.46,287.55c-.88.41-1.88.67-2.62,1.26-28.56,22.8-66.78,22.78-95.42-.06-.7-.56-1.55-.94-2.33-1.4-3.55-3.93-7.1-7.86-10.65-11.79-2.42-4.05-4.83-8.1-7.25-12.15-.29-.78-.54-1.57-.87-2.33-6.84-15.62-8.16-31.74-4.36-48.31,2.37-10.32,7.26-19.46,13.24-28.09,3.84-3.99,7.68-7.98,11.52-11.98,6.98-5.51,14.62-9.89,22.89-13.16,5.03-1.27,10.06-2.55,15.09-3.82,7.05,0,14.1,0,21.15,0,1.51.35,3.01.76,4.54,1.06,12.44,2.45,23.32,8.16,33.21,15.91,3.79,3.95,7.57,7.91,11.36,11.86,7.3,10.03,12.39,21.03,14.49,33.32.19,1.52.39,3.03.55,4.55,1.93,18.22-2.34,34.89-12.37,50.17-.71,1.08-1.05,2.39-1.57,3.6-2.86,2.79-5.76,5.54-8.55,8.39-.83.85-1.37,1.97-2.05,2.97Zm-71.5,4.95c10.47,4.16,21.34,4.85,32.26,2.8,36.75-6.91,59.62-39.52,53.6-76.43-1.91-11.74-6.84-22.24-15.01-31.07-15.32-17.74-34.91-25.22-57.89-22.41-47.11,5.75-72.58,58.46-48.07,98.96,8.22,13.59,19.78,23.29,35.1,28.15Z"/>
  <path class="cls-1" d="m117.2,184.68c-5.98,8.62-10.87,17.77-13.24,28.09-3.8,16.57-2.48,32.69,4.36,48.31.33.76.58,1.55.87,2.33-12.51.06-25.03.26-37.53.11-5.41-.07-9.12-4.55-9.12-10.32-.02-22.85,0-45.69,0-68.54,18.22,0,36.43.02,54.65.03Z"/>
  <path class="cls-18" d="m295.7,96.25c0,52.15-.02,104.3.1,156.45,0,2.56.8,5.36,2.03,7.62,6.6,12.21,13.45,24.28,20.21,36.4.51.91,1.14,1.8,1.43,2.78.71,2.37.08,4.41-2.13,5.64-2.17,1.2-4.27.86-5.93-1.04-.68-.78-1.17-1.72-1.68-2.63-5.65-10.11-11.29-20.23-16.94-30.33-.54-.96-1.13-1.89-1.95-3.24-1.14,1.98-2.07,3.57-2.96,5.17-5.49,9.84-11,19.67-16.45,29.53-1.39,2.51-3.34,3.77-6.18,2.97-3.02-.85-4.06-4.23-2.27-7.46,5.4-9.77,10.45-19.77,16.44-29.17,5.21-8.19,6.89-16.62,6.82-26.26-.36-48.8-.15-97.61-.14-146.41,3.21,0,6.42,0,9.63,0Z"/>
  <path class="cls-1" d="m151.62,159.55c-8.28,3.26-15.91,7.64-22.89,13.16-5.96-.02-11.92-.21-17.87-.01-5.29.17-9.38-1.47-11.93-6.28-.17-1.32-.49-2.64-.49-3.96-.05-10.34-.03-20.67-.04-31.01,2.27-.23,4.55-.65,6.82-.65,15.45-.05,30.9-.01,46.35,0,0,.21,0,.41.02.62,0,3.29-.01,6.58-.02,9.86-1.04.03-2.09.02-3.13.09-2.87.2-4.83,2.12-4.89,4.73-.06,2.51,2,4.54,4.83,4.73,1.04.07,2.08.08,3.13.11.03,2.87.07,5.75.1,8.62Z"/>
  <path class="cls-13" d="m225.61,172.7c-9.9-7.75-20.77-13.47-33.21-15.91-1.52-.3-3.02-.7-4.54-1.06-.02-1.57-.05-3.14-.08-4.71,5.74-.06,11.48-.12,17.21-.19,3.79-.05,5.67-1.63,5.65-4.73-.01-3-2.04-4.71-5.73-4.74-5.85-.05-11.69-.05-17.54-.07.04-3.27.08-6.54.12-9.81,2.9-.24,5.8-.66,8.7-.67,14.82-.06,29.65-.02,44.47-.01.2.16.4.33.6.49,0,9.16-.19,18.32.04,27.48.15,5.98-1.31,10.86-6.89,13.85-2.94.03-5.88.06-8.82.09Z"/>
  <path class="cls-12" d="m87.52,60.98c-2.81-1.62-5.62-3.23-8.43-4.85-9.01-5.26-18.02-10.52-27.04-15.76-4.08-2.38-5.58-5.48-4.26-8.94,1.55-4.07,5.7-5.44,9.84-3.1,6.99,3.96,13.97,7.96,20.88,12.07,2.01,1.2,3.46,1.55,5.52-.16,1.4-1.16,3.65-1.27,5.52-1.85,2.79,1.5,5.57,3.01,8.36,4.51.3,2.46.46,4.95.97,7.37.22,1.03.93,2.28,1.79,2.79,6.89,4.12,13.95,7.96,20.78,12.18,1.8,1.11,3.51,3.04,4.28,4.99.96,2.42.04,4.99-2.26,6.64-2.35,1.69-4.93,1.71-7.38.33-7.99-4.52-15.91-9.14-23.88-13.71-1.53-.88-3.12-1.67-4.68-2.5Z"/>
  <path class="cls-15" d="m295.7,96.25c-3.21,0-6.42,0-9.63,0-10.65-.03-21.3-.05-31.95-.09-4.66-.02-7.84-2.77-7.77-6.68.07-3.82,3.16-6.47,7.67-6.49,8.25-.03,16.5-.06,24.75.03,1.69.02,2.44-.5,3.22-2.06.99-2,2.67-3.65,4.06-5.45,3.22.01,6.44.02,9.66.04,1.76,2.26,3.53,4.52,5.81,7.44,7.88,0,16.74-.01,25.59.01,1.24,0,2.54,0,3.7.36,3.12.96,5.04,4.25,4.49,7.36-.53,3.02-3.38,5.41-6.73,5.42-9.6.05-19.21.02-28.81.02-1.36,0-2.71.05-4.07.08Z"/>
  <path class="cls-14" d="m98.93,166.41c2.54,4.82,6.64,6.46,11.93,6.28,5.95-.2,11.91,0,17.87.01-3.84,3.99-7.68,7.98-11.52,11.98-18.22,0-36.43-.02-54.65-.03-.01-2.82-.09-5.64-.03-8.46.14-5.65,4.39-9.76,10.07-9.77,8.78-.02,17.56,0,26.33,0Z"/>
  <path class="cls-2" d="m240.66,130.79c-14.82,0-29.65-.05-44.47.01-2.9.01-5.8.44-8.7.67.12-3.2.16-6.41.37-9.61.38-5.84,5.51-8.67,10.36-8.7,11.67-.08,23.34.01,35.02.03,5.26,2.28,8.31,5.88,7.48,12.01-.25,1.83-.05,3.72-.06,5.59Z"/>
  <path class="cls-2" d="m151.57,130.79c-15.45,0-30.9-.04-46.35,0-2.28,0-4.55.42-6.82.65.13-3.41-.1-6.89.47-10.22.85-4.95,4.91-8.07,9.96-8.08,11.78-.04,23.55.02,35.33.04,5.25,2.28,8.31,5.89,7.49,12.02-.25,1.83-.06,3.73-.07,5.59Z"/>
  <path class="cls-5" d="m187.38,141.28c5.85.02,11.69.02,17.54.07,3.69.03,5.72,1.74,5.73,4.74.01,3.1-1.86,4.68-5.65,4.73-5.74.07-11.48.13-17.21.19-7-.03-13.99-.06-20.99-.09-5.09,0-10.18,0-15.27,0-1.04-.04-2.09-.04-3.13-.11-2.83-.19-4.89-2.22-4.83-4.73.06-2.61,2.03-4.53,4.89-4.73,1.04-.07,2.09-.06,3.13-.09,5.05,0,10.11-.02,15.16-.03,6.88.01,13.76.03,20.64.04Z"/>
  <path class="cls-7" d="m234.42,172.6c5.58-2.99,7.04-7.87,6.89-13.85-.23-9.15-.05-18.32-.04-27.48,4.84,0,9.67,0,14.51,0-.11,11.72-.21,23.44-.32,35.16-.17.36-.34.72-.51,1.09-2.61,3.87-6.24,5.47-10.89,5.17-3.2-.2-6.42-.07-9.63-.09Z"/>
  <path class="cls-11" d="m276.33,184.67c.02,7.84.12,15.67.04,23.51-.06,5.44-4.23,9.41-9.95,9.56-3.97.11-7.94-.02-11.91-.04.35-.47.62-1.04,1.07-1.38,3.18-2.46,4.74-5.5,4.61-9.68-.24-7.29-.07-14.6-.07-21.9,5.4-.02,10.81-.04,16.21-.07Z"/>
  <path class="cls-13" d="m260.12,184.74c0,7.3-.17,14.61.07,21.9.14,4.18-1.42,7.23-4.61,9.68-.44.34-.71.91-1.07,1.38-1.02.06-2.04.12-3.06.18-2.1-12.29-7.19-23.29-14.49-33.32,7.7-.05,15.41-.11,23.11-.16.02.11.03.22.04.34Z"/>
  <path class="cls-8" d="m276.33,184.67c-5.4.02-10.81.04-16.21.07-.01-.11-.03-.22-.04-.34.01-2.69.02-5.39.04-8.08.03-3.97-1.52-6.99-5.17-8.8.17-.36.34-.72.51-1.09,3.85,0,7.71-.03,11.56-.02,5.25.02,9.28,3.95,9.38,9.19.05,3.02-.04,6.04-.06,9.06Z"/>
  <path class="cls-16" d="m255.78,131.27c-4.84,0-9.67,0-14.51,0-.2-.16-.4-.33-.6-.49,0-1.86-.19-3.76.06-5.59.83-6.13-2.23-9.73-7.48-12.01,3.75-.02,7.51-.07,11.26-.07,7.09,0,10.45,2.61,11.47,9.57.41,2.79-.1,5.72-.19,8.59Z"/>
  <path class="cls-21" d="m151.57,130.79c.01-1.87-.18-3.76.07-5.59.83-6.13-2.23-9.73-7.49-12.02,4.27-.02,8.54-.13,12.81-.05,5.84.11,9.64,4.02,9.73,9.9.04,2.75-.02,5.5-.04,8.25-5.02.04-10.04.08-15.06.12-.01-.21-.02-.41-.02-.62Z"/>
  <path class="cls-22" d="m116.45,275.56c3.55,3.93,7.1,7.86,10.65,11.79-2.13,3.69-4.16,7.44-6.43,11.05-1.6,2.55-4.36,3.35-6.8,2.18-2.6-1.25-3.74-3.5-3-6.21,1.72-6.31,3.7-12.54,5.57-18.81Z"/>
  <path class="cls-20" d="m227.46,287.55c.68-1,1.22-2.12,2.05-2.97,2.8-2.85,5.69-5.6,8.55-8.39,1.85,6.17,3.84,12.31,5.5,18.53.69,2.6-.66,4.73-3.13,5.84-2.51,1.13-4.92.52-6.38-1.72-2.38-3.64-4.42-7.52-6.6-11.29Z"/>
  <path class="cls-11" d="m151.59,131.41c5.02-.04,10.04-.08,15.06-.12.03,3.32.05,6.64.08,9.95-5.05,0-10.11.02-15.16.03,0-3.29.01-6.58.02-9.86Z"/>
  <path class="cls-17" d="m295.7,75.55c-3.22-.01-6.44-.03-9.66-.04,0-2.61-.08-5.22.03-7.82.14-3.15,2.03-5.2,4.66-5.28,2.74-.09,4.83,2.07,4.96,5.32.1,2.6.01,5.22.01,7.82Z"/>
  <path class="cls-19" d="m97.9,42.9c-2.79-1.5-5.57-3.01-8.36-4.51,1.38-2.44,2.68-4.93,4.17-7.3,1.59-2.53,4.1-3.21,6.43-1.96,2.4,1.3,3.2,4.04,1.79,6.73-1.25,2.39-2.68,4.7-4.03,7.04Z"/>
  <path class="cls-9" d="m155.97,292.51c-15.32-4.87-26.88-14.56-35.1-28.15-24.51-40.49.96-93.21,48.07-98.96,22.98-2.8,42.57,4.67,57.89,22.41.22.79.31,1.65.67,2.37,6.57,13.03,8.88,26.74,6.92,41.22-2.6,19.24-11.65,34.8-26.94,46.59-13.91,10.73-29.87,15.29-47.38,14.52-1.37-.06-2.75,0-4.13,0Z"/>
  <path class="cls-6" d="m155.97,292.51c1.38,0,2.75-.06,4.13,0,17.52.77,33.47-3.79,47.38-14.52,15.29-11.79,24.34-27.36,26.94-46.59,1.96-14.47-.36-28.19-6.92-41.22-.36-.72-.46-1.58-.67-2.37,8.16,8.83,13.09,19.33,15.01,31.07,6.02,36.91-16.85,69.52-53.6,76.43-10.91,2.05-21.78,1.36-32.26-2.8Z"/>
  <path class="cls-10" d="m254.94,167.52c3.65,1.8,5.2,4.83,5.17,8.8-.02,2.69-.03,5.39-.04,8.08-7.7.05-15.41.11-23.11.16-3.79-3.95-7.57-7.91-11.36-11.86,2.94-.03,5.88-.06,8.82-.09,3.21.02,6.43-.11,9.63.09,4.65.29,8.28-1.3,10.89-5.17Z"/>
  <path class="cls-3" d="m151.51,150.93c5.09,0,10.18,0,15.27,0-.03,1.6-.05,3.2-.08,4.8-5.03,1.27-10.06,2.55-15.09,3.82-.03-2.87-.07-5.75-.1-8.62Z"/>
</svg>