<?xml version="1.0" encoding="UTF-8"?>
<svg id="Layer_1" data-name="Layer 1" xmlns="http://www.w3.org/2000/svg" viewBox="0 0 703 713">
  <defs>
    <style>
      .cls-1 {
        fill: #e50011;
      }

      .cls-1, .cls-2, .cls-3, .cls-4, .cls-5, .cls-6, .cls-7, .cls-8, .cls-9, .cls-10, .cls-11, .cls-12 {
        stroke-width: 0px;
      }

      .cls-2 {
        fill: #ed1c24;
      }

      .cls-3 {
        fill: #ed0012;
      }

      .cls-4 {
        fill: #2a3332;
      }

      .cls-5 {
        fill: #787d7c;
      }

      .cls-6 {
        fill: #d2dce0;
      }

      .cls-7 {
        fill: #fc1a2a;
      }

      .cls-8 {
        fill: #131c1b;
      }

      .cls-9 {
        fill: #eaeef0;
      }

      .cls-10 {
        fill: #706a68;
      }

      .cls-11 {
        fill: #716b69;
      }

      .cls-12 {
        fill: #505756;
      }
    </style>
  </defs>
  <path class="cls-4" d="m19,348.95c0-5.18,0-10.36,0-15.54.43-1.09,1.17-2.16,1.26-3.28,3.72-45.91,16.36-89.23,38.21-129.77,15.31-28.4,33.91-54.45,57.37-76.81,1.96,1.66,4.04,3.2,5.85,5.01,40.76,40.71,81.49,81.45,122.25,122.16,1.82,1.82,3.85,3.42,5.79,5.12-2.66,3.08-5.38,6.12-7.96,9.26-21.91,26.6-33.69,56.9-33.42,91.6.86,9.42.94,19,2.71,28.25,18.01,94.1,125.51,143.21,209.33,95.79,1.87-1.03,3.87-1.87,5.57-3.12,8.46-6.2,16.84-12.52,25.25-18.79,1.95,1.67,4.02,3.22,5.83,5.02,40.4,40.35,80.75,80.73,121.19,121.04,2.05,2.05,4.78,3.43,7.19,5.12-.35.53-.62,1.14-1.07,1.58-54.27,53.11-118.89,84.84-194.39,94.14-5.39.66-10.74,1.63-16.11,2.46h-49.21c-1.08-.44-2.14-1.18-3.25-1.28-23.88-2.14-47.49-6.12-70.11-14.05-128.83-45.22-205.42-134.94-228.72-269.71-1.26-7.26-2.37-14.55-3.55-21.83,0-2.16,0-4.32,0-6.47.38-2.98.75-5.95,1.13-8.93-.38-5.66-.75-11.31-1.13-16.97Zm323.2,284.76c3.23,0,6.96,1.01,9.58-.25,3.48-1.67,7.49-4.59,8.77-7.93,1.85-4.84-.87-9.36-6.16-11.14-2.59-.87-5.45-1.04-8.2-1.28-12-1.04-24.14-1.15-35.97-3.12-33.92-5.66-65.62-17.48-94.86-35.84-39.44-24.76-70.16-57.62-91.54-98.88-18.72-36.12-28.55-74.64-28.48-115.52.02-8.74-4.35-13.66-11.38-13.43-6.64.22-11.1,5.22-10.4,13.6,1.46,17.76,2.17,35.77,5.79,53.13,14.19,67.89,49.52,122.74,104.61,164.92,46.71,35.76,99.88,53.1,158.24,55.74Zm-.98-64.46c3.02,0,6.04.07,9.06-.01,6.78-.19,11.56-4.04,11.87-9.48.3-5.25-3.55-9.36-10.31-10.23-13.2-1.7-26.63-2.16-39.63-4.82-40.26-8.24-74.23-27.93-102.07-58.24-20.95-22.81-36.31-48.85-43.45-78.98-3.94-16.63-5.27-33.89-7.71-50.87-.97-6.77-4.87-10.53-10.95-10.3-6.05.24-10.3,4.46-9.93,11.08.72,12.87.89,25.91,3.26,38.51,7.8,41.48,26.5,77.7,55.72,108.19,18.49,19.3,39.96,34.61,64.37,45.82,25.37,11.65,51.86,18.28,79.76,19.33Z"/>
  <path class="cls-12" d="m19,348.95c.38,5.66.75,11.31,1.13,16.96-.38-.05-.75-.09-1.13-.13v-16.83Z"/>
  <path class="cls-5" d="m19,365.78c.38.04.76.08,1.13.13-.38,2.98-.76,5.95-1.13,8.93,0-3.02,0-6.04,0-9.06Z"/>
  <path class="cls-8" d="m115.84,123.55c1.25-1.68,2.29-3.57,3.78-5,49.06-46.95,106.67-77.71,173.92-88.13,122.2-18.94,225.3,18.06,307.64,110.16,46.75,52.3,72.94,114.65,78.98,184.42,8.85,102.19-22.85,190.67-94.18,264.7-.14.15-.37.21-.56.32-2.41-1.69-5.13-3.07-7.19-5.12-40.44-40.31-80.79-80.7-121.19-121.04-1.81-1.81-3.88-3.36-5.83-5.02,2.34-2.8,4.86-5.47,6.99-8.42,4.72-6.56,9.24-13.26,13.84-19.91,14.05-22.6,20.58-47.3,20.69-73.81.43-28.13-7.88-53.64-22.77-77.31-34.2-54.35-106.25-79.01-166.42-57.05-20.34,7.42-37.96,18.99-53.8,33.51-1.93-1.7-3.97-3.3-5.79-5.12-40.76-40.71-81.49-81.45-122.25-122.16-1.81-1.81-3.89-3.35-5.85-5.01Zm511.71,225.21c.21-.02.43-.05.64-.07-1.43-12.39-2.31-24.87-4.39-37.15-13.43-79.54-54.65-141.4-120.81-186.69-44.22-30.27-93.9-44.41-147.24-46.22-2.96-.1-6.15.13-8.88,1.15-4.95,1.83-7.43,5.69-6.76,11.17.63,5.16,3.69,8.18,8.62,9.17,2.3.46,4.73.27,7.1.32,24.5.54,48.5,4.48,71.75,12.04,52.83,17.18,96.07,47.99,129.18,92.73,26.04,35.19,41.96,74.55,47.66,117.93,1.43,10.86,1.75,21.87,2.52,32.82.48,6.83,4.12,10.99,10.06,11.3,5.74.3,9.81-3.75,10.51-10.73.26-2.56.04-5.17.04-7.76Zm-268.62-205.68c-4.71,0-7.53-.22-10.31.05-5.69.54-9.07,3.82-9.7,9.49-.63,5.75,2.21,9.61,7.64,11.15,3.06.87,6.36,1.11,9.57,1.21,39.29,1.23,74.8,13.59,106.39,36.8,36.75,27,61.55,62.56,72.62,106.84,3.93,15.74,4.73,32.26,6.88,48.44.93,7,4.96,10.66,11.56,10.18,5.69-.41,9.54-4.77,8.98-11.18-1.2-13.7-1.75-27.57-4.4-41.01-9.11-46.25-31.19-85.4-66.34-117.05-38.34-34.52-83.42-52.41-132.89-54.91Z"/>
  <path class="cls-1" d="m249.72,255.85c15.85-14.52,33.46-26.08,53.8-33.51,60.17-21.96,132.22,2.7,166.42,57.05,14.89,23.67,23.2,49.18,22.77,77.31-31.45.05-62.9.1-94.36.16-2.6-1.84-5.21-3.67-7.81-5.51-6.43-22.77-19.4-33.94-40.04-34.51-21.8-.63-38.67,16.06-40.35,39.91-33.94-.01-67.88-.03-101.83-.04-.27-34.69,11.5-65,33.42-91.6,2.59-3.14,5.31-6.17,7.96-9.26Z"/>
  <path class="cls-2" d="m208.34,356.7c33.94.01,67.88.03,101.83.04.73,18.83,10.64,31.14,27.43,38.56,1.21,1.94,2.12,4.17,3.68,5.77,7.19,7.41,14.58,14.63,21.85,21.96,19.1,19.23,38.17,38.47,57.26,57.71-83.82,47.41-191.32-1.69-209.33-95.79-1.77-9.25-1.84-18.83-2.71-28.25Z"/>
  <path class="cls-11" d="m342.2,633.71c-58.35-2.64-111.52-19.98-158.24-55.74-55.09-42.17-90.42-97.03-104.61-164.92-3.63-17.36-4.33-35.37-5.79-53.13-.69-8.38,3.77-13.38,10.4-13.6,7.03-.23,11.4,4.69,11.38,13.43-.08,40.88,9.76,79.4,28.48,115.52,21.38,41.26,52.1,74.12,91.54,98.88,29.24,18.36,60.94,30.18,94.86,35.84,11.83,1.97,23.98,2.08,35.97,3.12,2.76.24,5.62.41,8.2,1.28,5.29,1.78,8.01,6.3,6.16,11.14-1.28,3.34-5.29,6.26-8.77,7.93-2.63,1.26-6.35.25-9.58.25Z"/>
  <path class="cls-7" d="m420.38,480.74c-19.08-19.24-38.16-38.48-57.26-57.71-7.28-7.33-14.67-14.55-21.85-21.96-1.56-1.6-2.47-3.83-3.68-5.77,4.31.47,8.62.95,12.92,1.42,2.99-.27,6.06-.18,8.94-.88,20.49-4.97,31.48-20.79,31.09-44.5,2.6,1.84,5.21,3.67,7.81,5.51,1.18,1.74,2.11,3.73,3.57,5.19,21.58,21.69,43.22,43.32,64.91,64.9,1.46,1.45,3.44,2.38,5.18,3.56-4.6,6.65-9.12,13.35-13.84,19.91-2.12,2.95-4.65,5.62-6.99,8.42-8.41,6.27-16.79,12.59-25.25,18.79-1.7,1.25-3.71,2.09-5.57,3.12Z"/>
  <path class="cls-11" d="m341.22,569.25c-27.91-1.05-54.39-7.68-79.76-19.33-24.4-11.21-45.88-26.52-64.37-45.82-29.22-30.49-47.92-66.72-55.72-108.19-2.37-12.6-2.54-25.64-3.26-38.51-.37-6.62,3.87-10.84,9.93-11.08,6.08-.24,9.97,3.53,10.95,10.3,2.44,16.98,3.77,34.24,7.71,50.87,7.13,30.13,22.5,56.17,43.45,78.98,27.84,30.31,61.81,50,102.07,58.24,12.99,2.66,26.42,3.12,39.63,4.82,6.76.87,10.6,4.98,10.31,10.23-.31,5.44-5.08,9.29-11.87,9.48-3.02.08-6.04.01-9.06.01Z"/>
  <path class="cls-10" d="m627.55,348.77c0,2.59.22,5.2-.04,7.76-.7,6.98-4.77,11.03-10.51,10.73-5.93-.31-9.58-4.47-10.06-11.3-.77-10.95-1.09-21.95-2.52-32.82-5.7-43.38-21.62-82.74-47.66-117.93-33.11-44.74-76.36-75.55-129.18-92.73-23.24-7.56-47.25-11.5-71.75-12.04-2.37-.05-4.8.14-7.1-.32-4.93-.99-8-4.01-8.62-9.17-.66-5.48,1.82-9.34,6.76-11.17,2.73-1.01,5.92-1.25,8.88-1.15,53.34,1.81,103.02,15.95,147.24,46.22,66.16,45.29,107.38,107.15,120.81,186.69,2.07,12.28,2.95,24.76,4.39,37.15-.21.02-.43.05-.64.07Z"/>
  <path class="cls-10" d="m358.93,143.09c49.47,2.51,94.55,20.39,132.89,54.91,35.15,31.65,57.23,70.8,66.34,117.05,2.65,13.44,3.2,27.31,4.4,41.01.56,6.41-3.29,10.78-8.98,11.18-6.6.47-10.63-3.18-11.56-10.18-2.15-16.18-2.95-32.7-6.88-48.44-11.07-44.28-35.87-79.85-72.62-106.84-31.59-23.21-67.1-35.56-106.39-36.8-3.21-.1-6.51-.34-9.57-1.21-5.43-1.54-8.27-5.4-7.64-11.15.62-5.67,4.01-8.95,9.7-9.49,2.78-.27,5.6-.05,10.31-.05Z"/>
  <path class="cls-3" d="m472.03,430.51c-1.74-1.17-3.72-2.1-5.18-3.56-21.69-21.58-43.33-43.22-64.91-64.9-1.46-1.46-2.39-3.45-3.57-5.19,31.45-.05,62.9-.1,94.36-.15-.11,26.5-6.64,51.21-20.69,73.81Z"/>
  <path class="cls-9" d="m350.52,396.72c-4.31-.47-8.62-.95-12.92-1.42-16.79-7.42-26.7-19.73-27.43-38.56,1.67-23.85,18.55-40.54,40.35-39.91,0,26.63,0,53.26,0,79.89Z"/>
  <path class="cls-6" d="m350.52,396.72c0-26.63,0-53.26,0-79.89,20.64.57,33.6,11.74,40.04,34.51.38,23.71-10.6,39.53-31.09,44.5-2.88.7-5.96.61-8.94.88Z"/>
</svg>