<?xml version="1.0" encoding="UTF-8"?>
<svg id="Layer_1" data-name="Layer 1" xmlns="http://www.w3.org/2000/svg" viewBox="0 0 351 332">
  <defs>
    <style>
      .cls-1 {
        fill: #667fbe;
      }

      .cls-1, .cls-2, .cls-3, .cls-4, .cls-5, .cls-6, .cls-7 {
        stroke-width: 0px;
      }

      .cls-2 {
        fill: #4787c7;
      }

      .cls-3 {
        fill: #2f3292;
      }

      .cls-4 {
        fill: #c6e1f4;
      }

      .cls-5 {
        fill: #4588c8;
      }

      .cls-6 {
        fill: #2f3594;
      }

      .cls-7 {
        fill: #6c8cc6;
      }
    </style>
  </defs>
  <path class="cls-3" d="m196.74,296.99c0-31.18-.06-61.84.1-92.51.02-3.05,1.39-6.09,2.21-9.47-6.27-3.51-10.13-9.34-11.37-17.36-1.69,1.29-3.1,2.38-4.52,3.47-15.74,12.08-35.72,9.61-47.93-6.11-18.22-23.45-36.38-46.96-54.48-70.51-12.04-15.66-9.58-35.49,5.96-47.73,12.93-10.18,25.95-20.23,39.05-30.19,15.39-11.7,35.4-9.12,47.25,6.13,18.3,23.53,36.53,47.11,54.67,70.77,12.23,15.96,9.5,35.82-6.39,48.16-1.32,1.03-2.64,2.07-4.07,3.19,17.37,8.07,18.68,28.43,5.02,39.1,4.36,4.29,4.39,9.81,4.37,15.43-.07,23.41-.03,46.82-.03,70.23,0,5.64,0,11.28,0,17.39.95,0,2.08,0,3.21,0,11.01,0,22.02-.06,33.03.02,8.19.06,13.5,4.05,15.1,11.13,1.87,8.23-4.35,16.43-12.79,16.79-2.77.12-5.56.04-8.34.04-32.38,0-64.77.03-97.15-.02-7.2-.01-12.84-5.06-13.9-12.15-.97-6.51,3.24-13.18,9.78-15.07,2.11-.61,4.43-.7,6.65-.71,10.37-.07,20.73-.03,31.1-.03,1.15,0,2.31,0,3.47,0Zm-37.63,10.07c-2.44.66-3.98,2.46-3.08,4.68.61,1.5,2.78,2.44,4.38,3.43.54.34,1.46.06,2.21.06,32.87,0,65.75,0,98.62,0,.75,0,1.51.08,2.24-.03,2.25-.32,4.23-1.22,4.58-3.71.32-2.33-.97-3.82-3.24-4.43-1.28-.05-2.56-.13-3.84-.13-30.54,0-61.09,0-91.63,0-3.41,0-6.83.08-10.24.12Zm57.04-13.59c.21-1.11.6-2.22.6-3.33.03-27.72.03-55.45,0-83.17,0-1.11-.39-2.22-.6-3.33-.24-2.66-1.96-4.16-4.35-4.22-2.54-.07-4.37,1.42-4.66,4.22-.21,1.11-.6,2.22-.6,3.33-.03,27.73-.03,55.46,0,83.19,0,1.11.39,2.22.59,3.33.4,2.34,1.45,3.9,4.14,3.85,2.65-.06,4.54-.94,4.87-3.85ZM161.27,35.25c-7.69-6.91-19.36-7.9-27.57-1.79-14.48,10.77-28.75,21.83-42.84,33.12-7.79,6.24-9.82,19.06-4.84,26.74,1.02-.75,2.06-1.48,3.06-2.25,5.91-4.58,11.8-9.19,17.73-13.73,2.77-2.12,5.84-1.85,7.64.54,1.75,2.33,1.26,4.96-1.44,7.25-1.55,1.31-3.2,2.49-4.8,3.74-5.53,4.31-11.05,8.62-16.7,13.02,1.98,2.53,3.74,4.77,5.63,7.19,7.21-5.58,14.2-11.01,21.22-16.41,2.75-2.11,5.95-1.98,7.72.23,1.8,2.25,1.28,5.31-1.47,7.53-3.32,2.68-6.75,5.23-10.12,7.86-3.74,2.91-7.47,5.85-11.25,8.82,2.06,2.6,3.82,4.82,5.6,7.08.62-.44.98-.67,1.31-.92,6.76-5.22,13.49-10.48,20.29-15.66,2.78-2.12,5.44-1.84,7.35.52,1.81,2.24,1.4,5.1-1.17,7.31-1.53,1.32-3.2,2.5-4.8,3.74-5.54,4.3-11.08,8.61-16.84,13.09,2.01,2.56,3.81,4.84,5.65,7.18,7.42-5.74,14.41-11.19,21.45-16.57,2.68-2.05,5.57-1.83,7.41.39,1.94,2.34,1.63,4.99-1.07,7.27-2.45,2.06-5.06,3.93-7.58,5.9-4.67,3.64-9.33,7.28-14.11,11.01,2.05,2.58,3.81,4.8,5.64,7.1.7-.5,1.14-.79,1.55-1.11,6.68-5.16,13.33-10.35,20.03-15.47,2.4-1.83,5.55-1.6,7.24.35,1.84,2.13,1.49,5.21-.96,7.36-1.44,1.27-3.02,2.38-4.54,3.56-5.71,4.43-11.43,8.87-17.22,13.36,1.98,2.56,3.73,4.81,5.55,7.17.71-.52,1.23-.88,1.72-1.27,6.59-5.09,13.16-10.22,19.78-15.26,2.91-2.21,5.72-1.91,7.59.6,1.61,2.16,1.03,5.22-1.46,7.33-1.38,1.17-2.87,2.23-4.3,3.34-4.94,3.83-9.88,7.67-14.95,11.61,7.92,4.13,16.71,3.01,24.51-3,13.03-10.03,26.16-19.94,38.94-30.29,3.18-2.57,5.65-6.36,7.57-10.05,1.88-3.61,2.4-7.81,1.07-12.39-2.68,2.04-5.04,3.83-7.39,5.64-4.06,3.13-8.06,6.34-12.17,9.4-2.72,2.02-5.52,1.67-7.35-.69-1.67-2.15-1.23-4.98,1.11-7.09.63-.57,1.33-1.07,2-1.6,6.49-5.03,12.98-10.06,19.76-15.31-1.95-2.49-3.76-4.8-5.64-7.2-7.12,5.49-13.96,10.76-20.8,16.04-3.3,2.55-6.18,2.57-8.14.05-2.04-2.63-1.41-5.19,1.95-7.89.33-.27.69-.51,1.03-.77,6.57-5.09,13.14-10.18,19.89-15.42-1.99-2.52-3.8-4.8-5.64-7.13-.67.49-1.02.72-1.36.98-6.6,5.08-13.19,10.18-19.79,15.25-2.95,2.26-6.03,2.09-7.9-.37-1.8-2.37-1.2-5.09,1.7-7.47,1.49-1.22,3.05-2.34,4.57-3.52,5.54-4.3,11.07-8.6,16.66-12.94-1.99-2.54-3.75-4.79-5.6-7.15-.72.53-1.23.89-1.73,1.27-6.59,5.09-13.16,10.22-19.79,15.26-2.71,2.07-5.58,1.82-7.4-.44-1.73-2.13-1.28-5.27,1.16-7.36,1.46-1.25,3.04-2.36,4.56-3.53,5.62-4.36,11.24-8.72,17.08-13.25-2.05-2.59-3.86-4.88-5.68-7.2-7.39,5.72-14.46,11.25-21.58,16.7-2.54,1.94-5.39,1.7-7.18-.4-1.97-2.31-1.69-5.07.87-7.31,1.53-1.33,3.19-2.5,4.79-3.75,5.62-4.37,11.25-8.73,17.02-13.22-1.97-2.54-3.7-4.79-5.56-7.18-1.67,1.26-3.11,2.33-4.53,3.43-5.75,4.44-11.46,8.92-17.24,13.31-2.43,1.84-5.41,1.5-7.17-.61-1.85-2.22-1.55-4.89.83-7.07.55-.5,1.16-.94,1.75-1.4,6.49-5.03,12.99-10.05,19.67-15.22Zm60.01,140.66c.02-6.9-4.96-12.02-11.73-12.05-6.25-.03-11.41,5.25-11.44,11.7-.03,6.6,4.86,11.91,11.08,12.02,6.75.13,12.07-5.01,12.09-11.68Z"/>
  <path class="cls-4" d="m161.27,35.25c-6.68,5.17-13.18,10.19-19.67,15.22-.59.46-1.2.89-1.75,1.4-2.37,2.18-2.68,4.85-.83,7.07,1.76,2.11,4.74,2.45,7.17.61,5.78-4.39,11.5-8.87,17.24-13.31,1.42-1.1,2.86-2.17,4.53-3.43,1.86,2.4,3.59,4.64,5.56,7.18-5.78,4.49-11.4,8.85-17.02,13.22-1.6,1.24-3.27,2.42-4.79,3.75-2.56,2.24-2.84,5.01-.87,7.31,1.79,2.09,4.64,2.34,7.18.4,7.13-5.45,14.19-10.97,21.58-16.7,1.83,2.31,3.63,4.6,5.68,7.2-5.84,4.53-11.46,8.89-17.08,13.25-1.52,1.18-3.1,2.28-4.56,3.53-2.44,2.09-2.89,5.22-1.16,7.36,1.83,2.26,4.69,2.5,7.4.44,6.63-5.05,13.19-10.17,19.79-15.26.5-.38,1.01-.75,1.73-1.27,1.85,2.36,3.61,4.61,5.6,7.15-5.59,4.34-11.12,8.65-16.66,12.94-1.52,1.18-3.08,2.3-4.57,3.52-2.9,2.38-3.5,5.1-1.7,7.47,1.87,2.46,4.95,2.63,7.9.37,6.61-5.07,13.2-10.16,19.79-15.25.33-.26.68-.49,1.36-.98,1.84,2.33,3.65,4.61,5.64,7.13-6.76,5.24-13.32,10.33-19.89,15.42-.34.26-.69.5-1.03.77-3.36,2.7-3.99,5.26-1.95,7.89,1.96,2.52,4.83,2.5,8.14-.05,6.84-5.28,13.68-10.55,20.8-16.04,1.88,2.4,3.69,4.71,5.64,7.2-6.78,5.25-13.27,10.28-19.76,15.31-.68.52-1.37,1.03-2,1.6-2.35,2.11-2.78,4.94-1.11,7.09,1.83,2.36,4.63,2.71,7.35.69,4.11-3.06,8.11-6.27,12.17-9.4,2.35-1.81,4.71-3.6,7.39-5.64,1.33,4.58.81,8.78-1.07,12.39-1.92,3.69-4.39,7.48-7.57,10.05-12.78,10.35-25.91,20.26-38.94,30.29-7.8,6-16.59,7.13-24.51,3,5.07-3.94,10.01-7.78,14.95-11.61,1.43-1.11,2.92-2.17,4.3-3.34,2.49-2.11,3.07-5.17,1.46-7.33-1.87-2.52-4.68-2.82-7.59-.6-6.63,5.04-13.19,10.17-19.78,15.26-.5.38-1.01.75-1.72,1.27-1.82-2.35-3.56-4.6-5.55-7.17,5.79-4.49,11.51-8.92,17.22-13.36,1.52-1.18,3.09-2.29,4.54-3.56,2.45-2.15,2.8-5.23.96-7.36-1.69-1.95-4.85-2.18-7.24-.35-6.7,5.12-13.36,10.31-20.03,15.47-.42.32-.85.61-1.55,1.11-1.83-2.3-3.59-4.52-5.64-7.1,4.78-3.73,9.44-7.38,14.11-11.01,2.53-1.97,5.14-3.84,7.58-5.9,2.7-2.28,3.01-4.93,1.07-7.27-1.84-2.22-4.73-2.44-7.41-.39-7.04,5.39-14.03,10.83-21.45,16.57-1.85-2.34-3.64-4.63-5.65-7.18,5.76-4.48,11.3-8.78,16.84-13.09,1.6-1.24,3.27-2.42,4.8-3.74,2.56-2.21,2.97-5.07,1.17-7.31-1.91-2.36-4.57-2.63-7.35-.52-6.8,5.18-13.53,10.44-20.29,15.66-.33.26-.68.49-1.31.92-1.79-2.26-3.55-4.48-5.6-7.08,3.79-2.97,7.51-5.9,11.25-8.82,3.37-2.62,6.8-5.17,10.12-7.86,2.75-2.22,3.27-5.28,1.47-7.53-1.77-2.21-4.97-2.34-7.72-.23-7.01,5.4-14,10.83-21.22,16.41-1.9-2.42-3.65-4.67-5.63-7.19,5.65-4.4,11.17-8.71,16.7-13.02,1.6-1.25,3.25-2.43,4.8-3.74,2.71-2.29,3.19-4.93,1.44-7.25-1.8-2.39-4.86-2.67-7.64-.54-5.94,4.54-11.82,9.16-17.73,13.73-1,.77-2.03,1.5-3.06,2.25-4.98-7.68-2.95-20.5,4.84-26.74,14.08-11.28,28.35-22.35,42.84-33.12,8.22-6.11,19.89-5.13,27.57,1.79Z"/>
  <path class="cls-5" d="m207.14,203.63c.3-2.8,2.12-4.29,4.66-4.22,2.38.07,4.11,1.56,4.35,4.22,0,29.94,0,59.89,0,89.83-.34,2.92-2.22,3.8-4.87,3.85-2.69.06-3.75-1.5-4.14-3.85,0-29.95,0-59.9,0-89.85Z"/>
  <path class="cls-2" d="m264.82,307.07c2.27.61,3.56,2.1,3.24,4.43-.35,2.49-2.33,3.39-4.58,3.71-.73.1-1.49.03-2.24.03-32.87,0-65.75,0-98.62,0-.75,0-1.67.27-2.21-.06-1.6-.99-3.77-1.93-4.38-3.43-.9-2.22.65-4.02,3.08-4.68,1.13.17,2.25.49,3.38.49,32.98.03,65.96.03,98.94,0,1.13,0,2.26-.31,3.39-.48Z"/>
  <path class="cls-2" d="m221.28,175.92c-.02,6.67-5.34,11.8-12.09,11.68-6.22-.12-11.11-5.42-11.08-12.02.03-6.45,5.19-11.73,11.44-11.7,6.77.03,11.75,5.15,11.73,12.05Zm-7.21.8c0-.48-.01-.96-.02-1.44-1.4-1.01-2.93-2.93-4.18-2.77-1.39.18-2.53,2.27-3.78,3.53,1.27,1.25,2.44,3.31,3.85,3.5,1.23.16,2.73-1.79,4.12-2.81Z"/>
  <path class="cls-7" d="m264.82,307.07c-1.13.17-2.26.48-3.39.48-32.98.03-65.96.03-98.94,0-1.13,0-2.25-.32-3.38-.49,3.42-.04,6.83-.12,10.24-.12,30.54,0,61.09,0,91.63,0,1.28,0,2.56.09,3.84.13Z"/>
  <path class="cls-1" d="m207.14,203.63c0,29.95,0,59.9,0,89.85-.21-1.11-.59-2.22-.59-3.33-.03-27.73-.03-55.46,0-83.19,0-1.11.39-2.22.6-3.33Z"/>
  <path class="cls-1" d="m216.16,293.47c0-29.94,0-59.89,0-89.83.21,1.11.6,2.22.6,3.33.03,27.72.03,55.45,0,83.17,0,1.11-.39,2.22-.6,3.33Z"/>
  <path class="cls-6" d="m214.07,176.72c-1.38,1.02-2.89,2.98-4.12,2.81-1.41-.19-2.58-2.25-3.85-3.5,1.25-1.26,2.39-3.35,3.78-3.53,1.25-.16,2.77,1.76,4.18,2.77,0,.48.01.96.02,1.44Z"/>
</svg>