<?xml version="1.0" encoding="UTF-8"?>
<svg id="Layer_1" data-name="Layer 1" xmlns="http://www.w3.org/2000/svg" viewBox="0 0 351 332">
  <defs>
    <style>
      .cls-1 {
        fill: #03abbe;
      }

      .cls-1, .cls-2 {
        stroke-width: 0px;
      }

      .cls-2 {
        fill: #24c3d7;
      }
    </style>
  </defs>
  <path class="cls-1" d="m179.08,12.06c13.75,27.82,27.5,55.64,41.24,83.46,2.29,4.64,4.41,9.37,6.98,13.85.8,1.4,2.7,2.81,4.28,3.05,24.76,3.75,49.54,7.32,74.33,10.91,11.21,1.62,22.43,3.2,33.51,4.78-5.63,5.87-11.01,11.79-16.7,17.38-20.43,20.08-40.99,40.04-61.4,60.14-.95.93-1.56,2.9-1.34,4.23,4.19,25.38,8.52,50.74,12.83,76.1,1.84,10.8,3.68,21.6,5.64,33.04-33.72-17.74-66.85-35.17-99.99-52.6-.02-1.82-.07-3.63-.07-5.45,0-81.22,0-162.45-.01-243.67,0-1.81-.16-3.62-.24-5.43,0,0,.06-.1.06-.1.3.1.59.2.89.3Z"/>
  <path class="cls-2" d="m178.13,11.85c.09,1.81.24,3.62.24,5.43.01,81.22.01,162.45.01,243.67,0,1.82.04,3.63.07,5.45-17.43,9.11-34.86,18.2-52.28,27.34-13.86,7.28-27.7,14.61-41.55,21.91-1.7.9-3.44,1.72-5.98,2.99.71-4.65,1.26-8.63,1.94-12.59,5.44-31.92,10.86-63.84,16.45-95.74.43-2.46-.25-3.79-1.85-5.35-24.99-24.31-49.93-48.68-74.92-72.99-.99-.97-2.39-1.51-3.61-2.25.31-.46.62-.93.92-1.39,9-1.35,18-2.73,27-4.04,27.13-3.94,54.26-7.81,81.36-11.93,1.56-.24,3.34-2.21,4.14-3.81,14.64-29.47,29.13-59.01,43.68-88.52,1.37-2.77,2.91-5.45,4.37-8.18Z"/>
  <path class="cls-2" d="m179.08,12.06c-.3-.1-.59-.2-.89-.3.15-.13.31-.26.46-.4.14.23.28.46.43.7Z"/>
</svg>