<?xml version="1.0" encoding="UTF-8"?>
<svg id="Layer_1" data-name="Layer 1" xmlns="http://www.w3.org/2000/svg" viewBox="0 0 568 630">
  <defs>
    <style>
      .cls-1 {
        font-family: Ishimura-Regular, Ishimura;
        font-size: 100px;
      }

      .cls-1, .cls-2 {
        fill: #eee;
      }

      .cls-2 {
        stroke-width: 0px;
      }
    </style>
  </defs>
  <path class="cls-2" d="m105.29,53.23c.73-2.83,1.37-5.7,2.22-8.5,6.65-22.01,38.47-31.57,56.9-13.19,8.53,8.51,13.63,18.94,16.86,30.28,14.3,50.35,28.43,100.76,42.63,151.14.2.71.45,1.4,1.2,2.08.26-4.13.52-8.26.78-12.39.48-7.63.66-15.3,1.51-22.88,2.11-18.66,15.73-31.87,34.03-32.41,15.61-.46,30.45,5.83,38.15,22.58.22.48.51.94.92,1.7,5.1-4.29,10.79-7.17,17.19-8.51,13.57-2.83,25.94-.27,36.33,9.1,8.44,7.61,11.28,17.64,10.66,28.77-.31,5.55-.78,11.08-.51,16.74,1.61-6.69,3.21-13.38,4.83-20.06,9.17-38.07,18.69-76.05,30.78-113.32,5.11-15.74,15.09-26.88,31.88-30.71,15.68-3.57,32.13,2.45,39.5,14.68,6.04,10.02,6.67,21.01,4.2,32.03-5.65,25.11-12.12,50.04-17.64,75.18-8.8,40.06-17.51,80.14-25.48,120.37-5.33,26.88-8.87,54.09-9.62,81.57-.04,1.28-.35,2.6-.73,3.83-11.28,36.12-22.57,72.24-33.94,108.33-.5,1.57-1.72,2.92-2.61,4.37h-212.47c-1.05-1.85-2.46-3.59-3.08-5.57-14.47-45.73-28.83-91.5-43.29-137.24-.87-2.74-.62-4.9.99-7.32,8.57-12.91,17.03-25.91,25.41-38.95.94-1.47,1.51-3.36,1.68-5.11.9-9.24,1.73-18.48,2.37-27.74.36-5.19,1.51-10.74.23-15.57-12.36-46.91-25.11-93.72-37.87-140.52-4.47-16.37-9.3-32.65-13.97-48.97v-13.77Zm175.4,291.92c3.02,2.59,6.3,4.99,9.09,7.87,18.15,18.76,25.2,41.78,25.39,67.34.03,3.76-2.27,5.98-5.81,6.05-3.68.08-6.84-2.71-7.32-6.13-1.01-7.21-1.68-14.53-3.39-21.58-4.79-19.76-14.65-36.34-32.13-47.53-16.28-10.41-34.33-13.98-53.41-12.78-2.93.18-5.76.09-7.28-2.44-1.05-1.75-1.46-4.31-1.13-6.34.34-2.08,1.46-4.23,4.5-4.32,3.47-.1,6.92-.97,10.4-1.11,17.3-.69,33.8,2.49,49.34,10.32.69.35,2.02.42,2.53,0,8.49-7.1,16.56-14.61,21.67-24.67,3.4-6.69,4.58-13.67,1.62-20.8-3.24-7.8-9.64-12.5-16.94-16.08-1.59-.78-3.52-1.2-5.29-1.21-26.45-.07-52.89-.02-79.34-.1-2.32,0-3.71.62-5.01,2.64-15.71,24.25-31.5,48.44-47.36,72.58-1.15,1.75-1.27,3.18-.66,5.09,13.31,42.07,26.59,84.15,39.78,126.27.72,2.3,1.71,2.98,4.07,2.98,63.39-.06,126.77-.07,190.16,0,2.43,0,3.32-.81,4.01-3.03,8.59-27.72,17.38-55.38,25.88-83.12,2.37-7.75,5.63-15.26,5.97-23.63.41-10.13.99-20.31,2.39-30.34,2.93-20.91,5.56-41.93,9.91-62.57,10.46-49.57,21.84-98.95,32.84-148.41,2.88-12.94,6.34-25.8,8.33-38.88,1.44-9.43-1.05-18.35-10.21-23.73-8.97-5.27-20.14-4.78-28,1.35-6.94,5.41-11.2,12.75-13.76,21.02-4.3,13.91-8.8,27.79-12.39,41.89-9.85,38.66-19.45,77.38-28.77,116.17-4.67,19.45-8.53,39.09-12.76,58.65-2.54,11.78-6.04,23.17-13.35,33.03-12.75,17.22-34.54,20.51-51.7,7.68-2.68-2-5.01-4.46-7.65-6.84-1.39,1.56-2.76,3.09-4.22,4.72Zm-57.68-83.18c0-.31.04-.53,0-.73-5.12-19.66-9.99-39.4-15.44-58.97-12.74-45.74-25.7-91.42-38.71-137.08-2.62-9.18-6.5-17.84-13.62-24.59-6.73-6.38-14.57-7.25-23.07-4.32-7.5,2.58-11.75,7.91-13.21,15.62-1.51,7.99-.93,15.91,1.48,23.58,16.8,53.63,31.59,107.81,45.51,162.25,3.03,11.84,6.33,23.52,3.7,35.94-.73,3.45-.53,7.09-.75,10.64,4.62-6.45,8.68-12.9,12.54-19.48,1.3-2.21,2.72-3.2,5.4-3.08,5.89.27,11.8.18,17.69.2,6.1.02,12.2,0,18.48,0Zm69.68,68.4c9.81,17.54,32.36,15.23,41.98,2.46,6.65-8.83,9.17-19.11,9.99-29.91.58-7.62,1-15.24,1.54-22.86,1.01-14.37,2.05-28.73,3.07-43.1.79-11.1,1.51-22.21,2.39-33.3.53-6.64.56-13.19-3.63-18.81-5.97-8.02-14.33-10.45-23.95-9.69-13.44,1.06-22.3,10.59-22.81,24-.41,11.01-1.36,22-2.09,33-.8,11.98-1.58,23.95-2.48,35.92-.17,2.28.63,3.78,2.17,5.42,10.13,10.82,12.72,23.19,7.19,37.09-2.99,7.52-7.74,13.84-13.38,19.78Zm-7.93-68.67c.97-11.37,1.91-22.53,2.86-33.69,1.02-12.06,1.78-24.14,3.13-36.16,1.39-12.34-5.32-25.14-16.06-29.45-15.79-6.33-30.56.46-34.01,16.08-1.23,5.59-1.26,11.46-1.61,17.22-.88,14.48-1.65,28.97-2.43,43.46-.4,7.48-.72,14.96-1.07,22.54h49.19Z"/>
  <text class="cls-1" transform="translate(32.47 588.13)"><tspan x="0" y="0">ROCK REVOLUTION</tspan></text>
</svg>